<svg xmlns="http://www.w3.org/2000/svg" width="1040" height="220" viewBox="0 0 1040 220" role="img" aria-labelledby="title desc">
  <title id="title">EasyHarness</title>
  <desc id="desc">A bright, rounded bubble wordmark for EasyHarness.</desc>
  <path d="M188.5 73.75C187.67 73.75 186.79 73.63 185.88 73.38C179.13 71.54 172.56 70.63 166.19 70.63C163.06 70.63 159.71 70.88 156.13 71.38C152.54 71.88 148.73 72.63 144.69 73.63C144.69 79.17 144.5 87.4 144.13 98.31C146.46 98.15 154.6 97.38 168.56 96C176.52 95.21 181.56 94.81 183.69 94.81C186.15 94.81 188.25 95.59 190 97.16C191.75 98.72 192.63 100.79 192.63 103.38C192.63 108.33 189.98 111.15 184.69 111.81C181.35 112.06 176.38 112.48 169.75 113.06C163.83 113.73 154.92 114.54 143 115.5C142.71 120.79 142.56 125.06 142.56 128.31C142.56 136.48 143.04 141.13 144 142.25C144.46 142.79 147.08 143.06 151.88 143.06C154.46 143.06 158.35 143 163.56 142.88C168.77 142.75 172.67 142.69 175.25 142.69C176.08 142.69 177.31 142.56 178.94 142.31C180.56 142.06 181.77 141.94 182.56 141.94C184.98 141.94 187.04 142.63 188.75 144C190.71 145.54 191.69 147.71 191.69 150.5C191.69 155.17 189.25 157.96 184.38 158.88C180.21 159.67 171.56 160.06 158.44 160.06C144.85 160.06 136 158.23 131.88 154.56C127.33 150.52 125.06 141.77 125.06 128.31C125.06 122.73 125.47 114.34 126.28 103.16C127.09 91.97 127.5 83.6 127.5 78.06C127.5 76.6 127.29 74.45 126.88 71.59C126.46 68.74 126.25 66.58 126.25 65.13C126.25 58.79 129.17 55.63 135 55.63C136.83 55.63 138.52 56.15 140.06 57.19C144.9 55.98 149.49 55.07 153.84 54.47C158.2 53.86 162.31 53.56 166.19 53.56C176.69 53.56 185.08 54.77 191.38 57.19C195.21 58.65 197.13 61.29 197.13 65.13C197.13 67.29 196.38 69.21 194.88 70.88C193.21 72.79 191.08 73.75 188.5 73.75ZM261.81 157.31C259.9 157.31 256.85 155.46 252.69 151.75C248.85 153.58 245.48 154.97 242.56 155.91C239.65 156.84 237.17 157.31 235.13 157.31C225.08 157.31 217.55 154.63 212.53 149.25C207.51 143.88 205 135.83 205 125.13C205 115.08 208.71 106.49 216.13 99.34C223.54 92.2 232.42 88.63 242.75 88.63C246.71 88.63 251.29 89.74 256.5 91.97C262.79 94.65 265.94 97.76 265.94 101.31C265.94 102.8 265.46 104.1 264.5 105.21C264.08 106.86 263.76 108.93 263.53 111.43C263.3 113.92 263.19 116.84 263.19 120.18C263.19 128.06 263.75 133.74 264.88 137.2C265 137.57 265.96 139.72 267.75 143.64C269.38 147.18 270.19 149.21 270.19 149.7C270.19 151.89 269.34 153.7 267.66 155.15C265.97 156.59 264.02 157.31 261.81 157.31ZM246.31 115.13C246.31 113.79 246.41 112.26 246.59 110.53C246.78 108.8 247.06 106.88 247.44 104.75C246.6 104.33 245.86 104.03 245.22 103.84C244.57 103.66 244.02 103.56 243.56 103.56C237.9 103.56 232.94 105.78 228.69 110.22C224.44 114.66 222.31 119.79 222.31 125.63C222.31 131.21 223.31 135.41 225.31 138.22C227.31 141.03 230.31 142.44 234.31 142.44C236.9 142.44 239.34 142.01 241.66 141.16C243.97 140.3 246.15 139.04 248.19 137.38C246.94 127.46 246.31 120.04 246.31 115.13ZM325.13 108.13C321 108.13 318.52 106.4 317.69 102.94C316.02 102.65 314.31 102.5 312.56 102.5C302.52 102.5 297.5 103.88 297.5 106.63C297.5 108.25 300.52 110.44 306.56 113.19C314.81 116.98 320.4 119.94 323.31 122.06C329.35 126.44 332.38 131.38 332.38 136.88C332.38 144.04 329.04 149.48 322.38 153.19C317 156.15 310.4 157.63 302.56 157.63C297.02 157.63 291.96 156.77 287.38 155.06C281.13 152.73 278 149.29 278 144.75C278 140.58 280.48 138.5 285.44 138.5C287.35 138.5 290.13 139.1 293.75 140.31C297.38 141.52 300.17 142.13 302.13 142.13C310.58 142.13 314.83 140.42 314.88 137C314.88 134.88 311.94 132.52 306.06 129.94C297.48 126.15 291.98 123.42 289.56 121.75C283.69 117.63 280.75 112.6 280.75 106.69C280.75 98.31 285.19 92.67 294.06 89.75C299.27 88.04 307.19 87.19 317.81 87.19C321.98 87.19 325.06 87.73 327.06 88.81C329.81 90.27 331.19 92.96 331.19 96.88C331.19 104.38 329.17 108.13 325.13 108.13ZM407.44 101.06C402.9 110.52 395.71 125.38 385.88 145.63C380.54 156.5 376.48 165.52 373.69 172.69C372.81 175.27 371.44 179.1 369.56 184.19C368.06 188.1 365.4 190.06 361.56 190.06C359.19 190.06 357.1 189.29 355.31 187.75C353.52 186.21 352.63 184.27 352.63 181.94C352.63 178.06 357.04 166.58 365.88 147.5C361.29 138.46 354.02 125.15 344.06 107.56C343.06 105.98 342.04 104.38 341 102.75C339.88 100.83 339.31 99.08 339.31 97.5C339.31 95.25 340.21 93.27 342 91.56C343.79 89.85 345.85 89 348.19 89C350.94 89 353.08 90.02 354.63 92.06C360.54 99.94 367.44 111.79 375.31 127.63C379.77 117.75 382.48 111.79 383.44 109.75C386.4 103.54 389.29 98.08 392.13 93.38C393.92 90.38 396.38 88.88 399.5 88.88C401.83 88.88 403.92 89.67 405.75 91.25C407.58 92.83 408.5 94.77 408.5 97.06C408.5 98.27 408.15 99.6 407.44 101.06ZM505.63 66.79C504.79 69.85 504.38 72.51 504.38 74.77C504.38 75.94 504.26 77.75 504.03 80.2C503.8 82.65 503.69 84.46 503.69 85.63C503.69 89.6 503.48 95.5 503.06 103.33C502.65 111.16 502.44 117.06 502.44 121.03C502.44 124.09 502.67 128.65 503.13 134.72C503.58 140.79 503.81 145.35 503.81 148.4C503.81 150.7 503 152.65 501.38 154.24C499.75 155.83 497.73 156.63 495.31 156.63C492.85 156.63 490.73 155.84 488.94 154.28C487.15 152.72 486.25 150.81 486.25 148.56C486.25 145.52 486.11 140.96 485.84 134.88C485.57 128.79 485.44 124.23 485.44 121.19C485.44 118.81 485.48 116.71 485.56 114.88C479.02 115.17 470.94 116.19 461.31 117.94C453.31 119.4 445.31 120.88 437.31 122.38C437.23 125.02 436.94 129.44 436.44 135.62C436.02 141.07 435.81 145.52 435.81 148.98C435.81 151.12 435 152.93 433.38 154.41C431.75 155.89 429.73 156.63 427.31 156.63C424.9 156.63 422.88 155.85 421.25 154.31C419.63 152.76 418.81 150.87 418.81 148.63C418.81 144.52 419.18 138.38 419.91 130.21C420.64 122.03 421 115.89 421 111.78C421 106.58 421.13 98.74 421.38 88.26C421.63 77.79 421.75 69.95 421.75 64.74C421.75 62.51 422.56 60.61 424.19 59.07C425.81 57.52 427.83 56.75 430.25 56.75C432.67 56.75 434.69 57.54 436.31 59.13C437.94 60.71 438.75 62.65 438.75 64.94C438.75 68.1 438.64 72.86 438.41 79.22C438.18 85.57 438.06 90.33 438.06 93.5C438.06 94.54 437.92 96.54 437.63 99.5C437.38 102.25 437.27 104.35 437.31 105.81L461.31 101.31C470.69 99.65 478.77 98.69 485.56 98.44C485.73 95.62 486 88.04 486.38 75.7C486.46 72.46 487.44 68.73 489.31 64.52C491.65 59.34 494.29 56.75 497.25 56.75C499.46 56.75 501.42 57.48 503.13 58.95C504.96 60.54 505.88 62.53 505.88 64.91C505.88 65.54 505.79 66.17 505.63 66.79ZM573.38 157.31C571.46 157.31 568.42 155.46 564.25 151.75C560.42 153.58 557.04 154.97 554.13 155.91C551.21 156.84 548.73 157.31 546.69 157.31C536.65 157.31 529.11 154.63 524.09 149.25C519.07 143.88 516.56 135.83 516.56 125.13C516.56 115.08 520.27 106.49 527.69 99.34C535.1 92.2 543.98 88.63 554.31 88.63C558.27 88.63 562.85 89.74 568.06 91.97C574.35 94.65 577.5 97.76 577.5 101.31C577.5 102.8 577.02 104.1 576.06 105.21C575.65 106.86 575.32 108.93 575.09 111.43C574.86 113.92 574.75 116.84 574.75 120.18C574.75 128.06 575.31 133.74 576.44 137.2C576.56 137.57 577.52 139.72 579.31 143.64C580.94 147.18 581.75 149.21 581.75 149.7C581.75 151.89 580.91 153.7 579.22 155.15C577.53 156.59 575.58 157.31 573.38 157.31ZM557.88 115.13C557.88 113.79 557.97 112.26 558.16 110.53C558.34 108.8 558.63 106.88 559 104.75C558.17 104.33 557.43 104.03 556.78 103.84C556.14 103.66 555.58 103.56 555.13 103.56C549.46 103.56 544.5 105.78 540.25 110.22C536 114.66 533.88 119.79 533.88 125.63C533.88 131.21 534.88 135.41 536.88 138.22C538.87 141.03 541.87 142.44 545.88 142.44C548.46 142.44 550.91 142.01 553.22 141.16C555.53 140.3 557.71 139.04 559.75 137.38C558.5 127.46 557.88 120.04 557.88 115.13ZM645.06 108.81C644.69 115.19 641.79 118.38 636.38 118.38C631.13 118.38 628.5 115.67 628.5 110.25L628.19 103.94C618.81 105.44 612.1 110.25 608.06 118.38L608.13 149.81C608.13 152.19 607.31 154.16 605.69 155.72C604.06 157.28 602 158.06 599.5 158.06C596.92 158.06 594.92 157.23 593.5 155.56C592.17 154.06 591.5 152.15 591.5 149.81L591.5 108.88C591.5 107.58 591.54 105.66 591.63 103.09C591.71 100.53 591.75 98.6 591.75 97.31C591.75 94.98 592.45 93.03 593.84 91.47C595.24 89.91 597.23 89.13 599.81 89.13C604.44 89.13 607.19 91.5 608.06 96.25C615.44 90.75 623.63 88 632.63 88C640.96 88 645.13 93.54 645.13 104.63C645.13 106.75 645.1 108.15 645.06 108.81ZM705.31 158.31C700.19 158.31 697.33 155.79 696.75 150.75C696.17 146.46 695.58 142.15 695 137.81C694.38 133.23 694.06 128.92 694.06 124.88C694.06 123.79 694.14 121.94 694.28 119.31C694.43 116.69 694.5 114.83 694.5 113.75C694.5 113.46 694.54 112.72 694.63 111.53C694.71 110.34 694.75 109.38 694.75 108.63C694.75 105.17 693.92 103.44 692.25 103.44C688.68 103.44 685.18 105.73 681.74 110.32C678.31 114.91 675.63 120.73 673.69 127.77C673.61 129.18 673.43 131.06 673.16 133.4C672.93 135.33 672.81 137.2 672.81 139.04C672.81 140.23 672.68 142.04 672.41 144.45C672.14 146.86 672 148.67 672 149.86C672 152.29 671.18 154.31 669.53 155.91C667.89 157.51 665.81 158.31 663.31 158.31C660.81 158.31 658.75 157.52 657.13 155.93C655.5 154.33 654.69 152.33 654.69 149.91C654.69 148.72 654.56 146.93 654.31 144.53C654.06 142.14 653.94 140.34 653.94 139.15C653.94 135.08 654.23 129.42 654.81 122.16C655.4 114.9 655.69 109.24 655.69 105.17C655.69 103.89 655.61 101.99 655.47 99.47C655.32 96.94 655.25 95.07 655.25 93.84C655.25 91.46 656.09 89.5 657.78 87.95C659.47 86.4 661.54 85.63 664 85.63C669.46 85.63 672.38 88.9 672.75 95.44L672.81 96.13C678.9 90 685.31 86.94 692.06 86.94C699.94 86.94 705.37 90.23 708.38 96.81C710.37 101.23 711.37 107.83 711.38 116.63L711.38 121.06C711.33 122.98 711.31 124.33 711.31 125.13C711.31 128.38 711.76 132.56 712.66 137.69C713.55 142.81 714 146.98 714 150.19C714 152.52 713.17 154.46 711.5 156C709.83 157.54 707.77 158.31 705.31 158.31ZM756.56 156.75C746.6 156.75 738.46 154.38 732.13 149.63C725.13 144.38 721.63 136.98 721.63 127.44C721.63 116.9 724.4 107.98 729.94 100.69C736.1 92.6 744.42 88.56 754.88 88.56C762.13 88.56 768.15 89.73 772.94 92.06C779.23 95.15 782.38 99.94 782.38 106.44C782.38 111.02 779.81 115.08 774.69 118.63C772.35 120.25 767.67 122.63 760.63 125.75L739.56 135.06C741.56 137.23 743.98 138.85 746.81 139.94C749.65 141.02 752.9 141.56 756.56 141.56C762.15 141.56 766.88 140.42 770.75 138.13C774.21 136.08 776.98 135.06 779.06 135.06C783.4 135.06 785.56 137.17 785.56 141.38C785.56 146.13 782.08 150 775.13 153C769.29 155.5 763.1 156.75 756.56 156.75ZM754.88 103.69C751 103.69 747.69 104.98 744.94 107.56C742.19 110.15 739.98 114.02 738.31 119.19C743.02 117.15 747.71 115.13 752.38 113.13C758 110.58 762.48 108.23 765.81 106.06C763.02 104.48 759.38 103.69 754.88 103.69ZM842.75 108.13C838.63 108.13 836.15 106.4 835.31 102.94C833.65 102.65 831.94 102.5 830.19 102.5C820.15 102.5 815.13 103.88 815.13 106.63C815.13 108.25 818.15 110.44 824.19 113.19C832.44 116.98 838.02 119.94 840.94 122.06C846.98 126.44 850 131.38 850 136.88C850 144.04 846.67 149.48 840 153.19C834.63 156.15 828.02 157.63 820.19 157.63C814.65 157.63 809.58 156.77 805 155.06C798.75 152.73 795.63 149.29 795.63 144.75C795.63 140.58 798.1 138.5 803.06 138.5C804.98 138.5 807.75 139.1 811.38 140.31C815 141.52 817.79 142.13 819.75 142.13C828.21 142.13 832.46 140.42 832.5 137C832.5 134.88 829.56 132.52 823.69 129.94C815.1 126.15 809.6 123.42 807.19 121.75C801.31 117.63 798.38 112.6 798.38 106.69C798.38 98.31 802.81 92.67 811.69 89.75C816.9 88.04 824.81 87.19 835.44 87.19C839.6 87.19 842.69 87.73 844.69 88.81C847.44 90.27 848.81 92.96 848.81 96.88C848.81 104.38 846.79 108.13 842.75 108.13ZM906.94 108.13C902.81 108.13 900.33 106.4 899.5 102.94C897.83 102.65 896.13 102.5 894.38 102.5C884.33 102.5 879.31 103.88 879.31 106.63C879.31 108.25 882.33 110.44 888.38 113.19C896.63 116.98 902.21 119.94 905.13 122.06C911.17 126.44 914.19 131.38 914.19 136.88C914.19 144.04 910.85 149.48 904.19 153.19C898.81 156.15 892.21 157.63 884.38 157.63C878.83 157.63 873.77 156.77 869.19 155.06C862.94 152.73 859.81 149.29 859.81 144.75C859.81 140.58 862.29 138.5 867.25 138.5C869.17 138.5 871.94 139.1 875.56 140.31C879.19 141.52 881.98 142.13 883.94 142.13C892.4 142.13 896.65 140.42 896.69 137C896.69 134.88 893.75 132.52 887.88 129.94C879.29 126.15 873.79 123.42 871.38 121.75C865.5 117.63 862.56 112.6 862.56 106.69C862.56 98.31 867 92.67 875.88 89.75C881.08 88.04 889 87.19 899.63 87.19C903.79 87.19 906.87 87.73 908.88 88.81C911.62 90.27 913 92.96 913 96.88C913 104.38 910.98 108.13 906.94 108.13Z" transform="translate(10 14)" fill="#B6FF00" opacity="0.82"/>
  <path d="M188.5 73.75C187.67 73.75 186.79 73.63 185.88 73.38C179.13 71.54 172.56 70.63 166.19 70.63C163.06 70.63 159.71 70.88 156.13 71.38C152.54 71.88 148.73 72.63 144.69 73.63C144.69 79.17 144.5 87.4 144.13 98.31C146.46 98.15 154.6 97.38 168.56 96C176.52 95.21 181.56 94.81 183.69 94.81C186.15 94.81 188.25 95.59 190 97.16C191.75 98.72 192.63 100.79 192.63 103.38C192.63 108.33 189.98 111.15 184.69 111.81C181.35 112.06 176.38 112.48 169.75 113.06C163.83 113.73 154.92 114.54 143 115.5C142.71 120.79 142.56 125.06 142.56 128.31C142.56 136.48 143.04 141.13 144 142.25C144.46 142.79 147.08 143.06 151.88 143.06C154.46 143.06 158.35 143 163.56 142.88C168.77 142.75 172.67 142.69 175.25 142.69C176.08 142.69 177.31 142.56 178.94 142.31C180.56 142.06 181.77 141.94 182.56 141.94C184.98 141.94 187.04 142.63 188.75 144C190.71 145.54 191.69 147.71 191.69 150.5C191.69 155.17 189.25 157.96 184.38 158.88C180.21 159.67 171.56 160.06 158.44 160.06C144.85 160.06 136 158.23 131.88 154.56C127.33 150.52 125.06 141.77 125.06 128.31C125.06 122.73 125.47 114.34 126.28 103.16C127.09 91.97 127.5 83.6 127.5 78.06C127.5 76.6 127.29 74.45 126.88 71.59C126.46 68.74 126.25 66.58 126.25 65.13C126.25 58.79 129.17 55.63 135 55.63C136.83 55.63 138.52 56.15 140.06 57.19C144.9 55.98 149.49 55.07 153.84 54.47C158.2 53.86 162.31 53.56 166.19 53.56C176.69 53.56 185.08 54.77 191.38 57.19C195.21 58.65 197.13 61.29 197.13 65.13C197.13 67.29 196.38 69.21 194.88 70.88C193.21 72.79 191.08 73.75 188.5 73.75ZM261.81 157.31C259.9 157.31 256.85 155.46 252.69 151.75C248.85 153.58 245.48 154.97 242.56 155.91C239.65 156.84 237.17 157.31 235.13 157.31C225.08 157.31 217.55 154.63 212.53 149.25C207.51 143.88 205 135.83 205 125.13C205 115.08 208.71 106.49 216.13 99.34C223.54 92.2 232.42 88.63 242.75 88.63C246.71 88.63 251.29 89.74 256.5 91.97C262.79 94.65 265.94 97.76 265.94 101.31C265.94 102.8 265.46 104.1 264.5 105.21C264.08 106.86 263.76 108.93 263.53 111.43C263.3 113.92 263.19 116.84 263.19 120.18C263.19 128.06 263.75 133.74 264.88 137.2C265 137.57 265.96 139.72 267.75 143.64C269.38 147.18 270.19 149.21 270.19 149.7C270.19 151.89 269.34 153.7 267.66 155.15C265.97 156.59 264.02 157.31 261.81 157.31ZM246.31 115.13C246.31 113.79 246.41 112.26 246.59 110.53C246.78 108.8 247.06 106.88 247.44 104.75C246.6 104.33 245.86 104.03 245.22 103.84C244.57 103.66 244.02 103.56 243.56 103.56C237.9 103.56 232.94 105.78 228.69 110.22C224.44 114.66 222.31 119.79 222.31 125.63C222.31 131.21 223.31 135.41 225.31 138.22C227.31 141.03 230.31 142.44 234.31 142.44C236.9 142.44 239.34 142.01 241.66 141.16C243.97 140.3 246.15 139.04 248.19 137.38C246.94 127.46 246.31 120.04 246.31 115.13ZM325.13 108.13C321 108.13 318.52 106.4 317.69 102.94C316.02 102.65 314.31 102.5 312.56 102.5C302.52 102.5 297.5 103.88 297.5 106.63C297.5 108.25 300.52 110.44 306.56 113.19C314.81 116.98 320.4 119.94 323.31 122.06C329.35 126.44 332.38 131.38 332.38 136.88C332.38 144.04 329.04 149.48 322.38 153.19C317 156.15 310.4 157.63 302.56 157.63C297.02 157.63 291.96 156.77 287.38 155.06C281.13 152.73 278 149.29 278 144.75C278 140.58 280.48 138.5 285.44 138.5C287.35 138.5 290.13 139.1 293.75 140.31C297.38 141.52 300.17 142.13 302.13 142.13C310.58 142.13 314.83 140.42 314.88 137C314.88 134.88 311.94 132.52 306.06 129.94C297.48 126.15 291.98 123.42 289.56 121.75C283.69 117.63 280.75 112.6 280.75 106.69C280.75 98.31 285.19 92.67 294.06 89.75C299.27 88.04 307.19 87.19 317.81 87.19C321.98 87.19 325.06 87.73 327.06 88.81C329.81 90.27 331.19 92.96 331.19 96.88C331.19 104.38 329.17 108.13 325.13 108.13ZM407.44 101.06C402.9 110.52 395.71 125.38 385.88 145.63C380.54 156.5 376.48 165.52 373.69 172.69C372.81 175.27 371.44 179.1 369.56 184.19C368.06 188.1 365.4 190.06 361.56 190.06C359.19 190.06 357.1 189.29 355.31 187.75C353.52 186.21 352.63 184.27 352.63 181.94C352.63 178.06 357.04 166.58 365.88 147.5C361.29 138.46 354.02 125.15 344.06 107.56C343.06 105.98 342.04 104.38 341 102.75C339.88 100.83 339.31 99.08 339.31 97.5C339.31 95.25 340.21 93.27 342 91.56C343.79 89.85 345.85 89 348.19 89C350.94 89 353.08 90.02 354.63 92.06C360.54 99.94 367.44 111.79 375.31 127.63C379.77 117.75 382.48 111.79 383.44 109.75C386.4 103.54 389.29 98.08 392.13 93.38C393.92 90.38 396.38 88.88 399.5 88.88C401.83 88.88 403.92 89.67 405.75 91.25C407.58 92.83 408.5 94.77 408.5 97.06C408.5 98.27 408.15 99.6 407.44 101.06ZM505.63 66.79C504.79 69.85 504.38 72.51 504.38 74.77C504.38 75.94 504.26 77.75 504.03 80.2C503.8 82.65 503.69 84.46 503.69 85.63C503.69 89.6 503.48 95.5 503.06 103.33C502.65 111.16 502.44 117.06 502.44 121.03C502.44 124.09 502.67 128.65 503.13 134.72C503.58 140.79 503.81 145.35 503.81 148.4C503.81 150.7 503 152.65 501.38 154.24C499.75 155.83 497.73 156.63 495.31 156.63C492.85 156.63 490.73 155.84 488.94 154.28C487.15 152.72 486.25 150.81 486.25 148.56C486.25 145.52 486.11 140.96 485.84 134.88C485.57 128.79 485.44 124.23 485.44 121.19C485.44 118.81 485.48 116.71 485.56 114.88C479.02 115.17 470.94 116.19 461.31 117.94C453.31 119.4 445.31 120.88 437.31 122.38C437.23 125.02 436.94 129.44 436.44 135.62C436.02 141.07 435.81 145.52 435.81 148.98C435.81 151.12 435 152.93 433.38 154.41C431.75 155.89 429.73 156.63 427.31 156.63C424.9 156.63 422.88 155.85 421.25 154.31C419.63 152.76 418.81 150.87 418.81 148.63C418.81 144.52 419.18 138.38 419.91 130.21C420.64 122.03 421 115.89 421 111.78C421 106.58 421.13 98.74 421.38 88.26C421.63 77.79 421.75 69.95 421.75 64.74C421.75 62.51 422.56 60.61 424.19 59.07C425.81 57.52 427.83 56.75 430.25 56.75C432.67 56.75 434.69 57.54 436.31 59.13C437.94 60.71 438.75 62.65 438.75 64.94C438.75 68.1 438.64 72.86 438.41 79.22C438.18 85.57 438.06 90.33 438.06 93.5C438.06 94.54 437.92 96.54 437.63 99.5C437.38 102.25 437.27 104.35 437.31 105.81L461.31 101.31C470.69 99.65 478.77 98.69 485.56 98.44C485.73 95.62 486 88.04 486.38 75.7C486.46 72.46 487.44 68.73 489.31 64.52C491.65 59.34 494.29 56.75 497.25 56.75C499.46 56.75 501.42 57.48 503.13 58.95C504.96 60.54 505.88 62.53 505.88 64.91C505.88 65.54 505.79 66.17 505.63 66.79ZM573.38 157.31C571.46 157.31 568.42 155.46 564.25 151.75C560.42 153.58 557.04 154.97 554.13 155.91C551.21 156.84 548.73 157.31 546.69 157.31C536.65 157.31 529.11 154.63 524.09 149.25C519.07 143.88 516.56 135.83 516.56 125.13C516.56 115.08 520.27 106.49 527.69 99.34C535.1 92.2 543.98 88.63 554.31 88.63C558.27 88.63 562.85 89.74 568.06 91.97C574.35 94.65 577.5 97.76 577.5 101.31C577.5 102.8 577.02 104.1 576.06 105.21C575.65 106.86 575.32 108.93 575.09 111.43C574.86 113.92 574.75 116.84 574.75 120.18C574.75 128.06 575.31 133.74 576.44 137.2C576.56 137.57 577.52 139.72 579.31 143.64C580.94 147.18 581.75 149.21 581.75 149.7C581.75 151.89 580.91 153.7 579.22 155.15C577.53 156.59 575.58 157.31 573.38 157.31ZM557.88 115.13C557.88 113.79 557.97 112.26 558.16 110.53C558.34 108.8 558.63 106.88 559 104.75C558.17 104.33 557.43 104.03 556.78 103.84C556.14 103.66 555.58 103.56 555.13 103.56C549.46 103.56 544.5 105.78 540.25 110.22C536 114.66 533.88 119.79 533.88 125.63C533.88 131.21 534.88 135.41 536.88 138.22C538.87 141.03 541.87 142.44 545.88 142.44C548.46 142.44 550.91 142.01 553.22 141.16C555.53 140.3 557.71 139.04 559.75 137.38C558.5 127.46 557.88 120.04 557.88 115.13ZM645.06 108.81C644.69 115.19 641.79 118.38 636.38 118.38C631.13 118.38 628.5 115.67 628.5 110.25L628.19 103.94C618.81 105.44 612.1 110.25 608.06 118.38L608.13 149.81C608.13 152.19 607.31 154.16 605.69 155.72C604.06 157.28 602 158.06 599.5 158.06C596.92 158.06 594.92 157.23 593.5 155.56C592.17 154.06 591.5 152.15 591.5 149.81L591.5 108.88C591.5 107.58 591.54 105.66 591.63 103.09C591.71 100.53 591.75 98.6 591.75 97.31C591.75 94.98 592.45 93.03 593.84 91.47C595.24 89.91 597.23 89.13 599.81 89.13C604.44 89.13 607.19 91.5 608.06 96.25C615.44 90.75 623.63 88 632.63 88C640.96 88 645.13 93.54 645.13 104.63C645.13 106.75 645.1 108.15 645.06 108.81ZM705.31 158.31C700.19 158.31 697.33 155.79 696.75 150.75C696.17 146.46 695.58 142.15 695 137.81C694.38 133.23 694.06 128.92 694.06 124.88C694.06 123.79 694.14 121.94 694.28 119.31C694.43 116.69 694.5 114.83 694.5 113.75C694.5 113.46 694.54 112.72 694.63 111.53C694.71 110.34 694.75 109.38 694.75 108.63C694.75 105.17 693.92 103.44 692.25 103.44C688.68 103.44 685.18 105.73 681.74 110.32C678.31 114.91 675.63 120.73 673.69 127.77C673.61 129.18 673.43 131.06 673.16 133.4C672.93 135.33 672.81 137.2 672.81 139.04C672.81 140.23 672.68 142.04 672.41 144.45C672.14 146.86 672 148.67 672 149.86C672 152.29 671.18 154.31 669.53 155.91C667.89 157.51 665.81 158.31 663.31 158.31C660.81 158.31 658.75 157.52 657.13 155.93C655.5 154.33 654.69 152.33 654.69 149.91C654.69 148.72 654.56 146.93 654.31 144.53C654.06 142.14 653.94 140.34 653.94 139.15C653.94 135.08 654.23 129.42 654.81 122.16C655.4 114.9 655.69 109.24 655.69 105.17C655.69 103.89 655.61 101.99 655.47 99.47C655.32 96.94 655.25 95.07 655.25 93.84C655.25 91.46 656.09 89.5 657.78 87.95C659.47 86.4 661.54 85.63 664 85.63C669.46 85.63 672.38 88.9 672.75 95.44L672.81 96.13C678.9 90 685.31 86.94 692.06 86.94C699.94 86.94 705.37 90.23 708.38 96.81C710.37 101.23 711.37 107.83 711.38 116.63L711.38 121.06C711.33 122.98 711.31 124.33 711.31 125.13C711.31 128.38 711.76 132.56 712.66 137.69C713.55 142.81 714 146.98 714 150.19C714 152.52 713.17 154.46 711.5 156C709.83 157.54 707.77 158.31 705.31 158.31ZM756.56 156.75C746.6 156.75 738.46 154.38 732.13 149.63C725.13 144.38 721.63 136.98 721.63 127.44C721.63 116.9 724.4 107.98 729.94 100.69C736.1 92.6 744.42 88.56 754.88 88.56C762.13 88.56 768.15 89.73 772.94 92.06C779.23 95.15 782.38 99.94 782.38 106.44C782.38 111.02 779.81 115.08 774.69 118.63C772.35 120.25 767.67 122.63 760.63 125.75L739.56 135.06C741.56 137.23 743.98 138.85 746.81 139.94C749.65 141.02 752.9 141.56 756.56 141.56C762.15 141.56 766.88 140.42 770.75 138.13C774.21 136.08 776.98 135.06 779.06 135.06C783.4 135.06 785.56 137.17 785.56 141.38C785.56 146.13 782.08 150 775.13 153C769.29 155.5 763.1 156.75 756.56 156.75ZM754.88 103.69C751 103.69 747.69 104.98 744.94 107.56C742.19 110.15 739.98 114.02 738.31 119.19C743.02 117.15 747.71 115.13 752.38 113.13C758 110.58 762.48 108.23 765.81 106.06C763.02 104.48 759.38 103.69 754.88 103.69ZM842.75 108.13C838.63 108.13 836.15 106.4 835.31 102.94C833.65 102.65 831.94 102.5 830.19 102.5C820.15 102.5 815.13 103.88 815.13 106.63C815.13 108.25 818.15 110.44 824.19 113.19C832.44 116.98 838.02 119.94 840.94 122.06C846.98 126.44 850 131.38 850 136.88C850 144.04 846.67 149.48 840 153.19C834.63 156.15 828.02 157.63 820.19 157.63C814.65 157.63 809.58 156.77 805 155.06C798.75 152.73 795.63 149.29 795.63 144.75C795.63 140.58 798.1 138.5 803.06 138.5C804.98 138.5 807.75 139.1 811.38 140.31C815 141.52 817.79 142.13 819.75 142.13C828.21 142.13 832.46 140.42 832.5 137C832.5 134.88 829.56 132.52 823.69 129.94C815.1 126.15 809.6 123.42 807.19 121.75C801.31 117.63 798.38 112.6 798.38 106.69C798.38 98.31 802.81 92.67 811.69 89.75C816.9 88.04 824.81 87.19 835.44 87.19C839.6 87.19 842.69 87.73 844.69 88.81C847.44 90.27 848.81 92.96 848.81 96.88C848.81 104.38 846.79 108.13 842.75 108.13ZM906.94 108.13C902.81 108.13 900.33 106.4 899.5 102.94C897.83 102.65 896.13 102.5 894.38 102.5C884.33 102.5 879.31 103.88 879.31 106.63C879.31 108.25 882.33 110.44 888.38 113.19C896.63 116.98 902.21 119.94 905.13 122.06C911.17 126.44 914.19 131.38 914.19 136.88C914.19 144.04 910.85 149.48 904.19 153.19C898.81 156.15 892.21 157.63 884.38 157.63C878.83 157.63 873.77 156.77 869.19 155.06C862.94 152.73 859.81 149.29 859.81 144.75C859.81 140.58 862.29 138.5 867.25 138.5C869.17 138.5 871.94 139.1 875.56 140.31C879.19 141.52 881.98 142.13 883.94 142.13C892.4 142.13 896.65 140.42 896.69 137C896.69 134.88 893.75 132.52 887.88 129.94C879.29 126.15 873.79 123.42 871.38 121.75C865.5 117.63 862.56 112.6 862.56 106.69C862.56 98.31 867 92.67 875.88 89.75C881.08 88.04 889 87.19 899.63 87.19C903.79 87.19 906.87 87.73 908.88 88.81C911.62 90.27 913 92.96 913 96.88C913 104.38 910.98 108.13 906.94 108.13Z" fill="#00E5FF" stroke="#07121F" stroke-width="5" stroke-linejoin="round" paint-order="stroke"/>
</svg>